<svg width="25" height="30" viewBox="0 0 25 30" fill="none" xmlns="http://www.w3.org/2000/svg">
<path d="M11.3095 0C9.57299 0 7.90757 0.827804 6.67966 2.3013C5.45174 3.7748 4.7619 5.7733 4.7619 7.85714C4.7619 9.94099 5.45174 11.9395 6.67966 13.413C7.90757 14.8865 9.57299 15.7143 11.3095 15.7143C13.0461 15.7143 14.7115 14.8865 15.9394 13.413C17.1673 11.9395 17.8571 9.94099 17.8571 7.85714C17.8571 5.7733 17.1673 3.7748 15.9394 2.3013C14.7115 0.827804 13.0461 0 11.3095 0ZM25 24.2857H20.2381V30H17.8571V24.2857H13.0952V21.4286H17.8571V15.7143H20.2381V21.4286H25V24.2857ZM12.9476 17.1429C11.8835 18.7736 11.3066 20.7859 11.3095 22.8571C11.3095 25.0129 11.9214 26.9957 12.9476 28.5714H0V25.7143C0 23.441 0.752549 21.2608 2.09209 19.6534C3.43164 18.0459 5.24845 17.1429 7.14286 17.1429H12.9476Z" fill="#FEFBF9"/>
</svg>
