<svg width="17" height="16" viewBox="0 0 17 16" fill="none" xmlns="http://www.w3.org/2000/svg">
<path d="M5.88889 0.888672L2 4.77756L5.88889 8.66645M9 14.1109H11.3333C11.9462 14.1109 12.553 13.9902 13.1192 13.7557C13.6854 13.5211 14.1998 13.1774 14.6332 12.7441C15.0665 12.3107 15.4102 11.7963 15.6448 11.2301C15.8793 10.6639 16 10.0571 16 9.44423C16 8.83139 15.8793 8.22456 15.6448 7.65837C15.4102 7.09218 15.0665 6.57774 14.6332 6.1444C14.1998 5.71106 13.6854 5.36731 13.1192 5.13279C12.553 4.89827 11.9462 4.77756 11.3333 4.77756H2.77778" stroke="black" stroke-width="2"/>
</svg>
