<svg width="30" height="30" viewBox="0 0 30 30" fill="none" xmlns="http://www.w3.org/2000/svg">
<path d="M1.875 27H28.125C28.6562 27 29.1016 27.1438 29.4609 27.4313C29.8203 27.7188 30 28.075 30 28.5C30 28.925 29.8203 29.2812 29.4609 29.5687C29.1016 29.8562 28.6562 30 28.125 30H1.875C1.34375 30 0.898438 29.8562 0.539062 29.5687C0.179688 29.2812 0 28.925 0 28.5C0 28.075 0.179688 27.7188 0.539062 27.4313C0.898438 27.1438 1.34375 27 1.875 27ZM15 23.0625C14.7188 23.0625 14.4453 23.0125 14.1797 22.9125C13.9141 22.8125 13.6875 22.6625 13.5 22.4625L4.21875 12.9375C3.75 12.4375 3.6875 11.9062 4.03125 11.3438C4.375 10.7812 4.9375 10.5 5.71875 10.5H9.375V1.5C9.375 1.075 9.55469 0.71875 9.91406 0.43125C10.2734 0.14375 10.7188 0 11.25 0H18.75C19.2812 0 19.7266 0.14375 20.0859 0.43125C20.4453 0.71875 20.625 1.075 20.625 1.5V10.5H24.2812C25.0625 10.5 25.625 10.7812 25.9688 11.3438C26.3125 11.9062 26.25 12.4375 25.7812 12.9375L16.5 22.4625C16.3125 22.6625 16.0859 22.8125 15.8203 22.9125C15.5547 23.0125 15.2812 23.0625 15 23.0625Z" fill="#FEFBF9"/>
</svg>
