<svg width="26" height="30" viewBox="0 0 26 30" fill="none" xmlns="http://www.w3.org/2000/svg">
<path d="M13.6579 28.2353V26.0294C13.6579 25.5588 13.7292 25.1103 13.8717 24.6838C14.0143 24.2574 14.2061 23.8824 14.4474 23.5588L20.9276 14.8676C21.125 14.6029 21.3443 14.4118 21.5855 14.2941C21.8268 14.1765 22.068 14.1176 22.3092 14.1176C22.5724 14.1176 22.8246 14.1838 23.0658 14.3162C23.307 14.4485 23.5263 14.6471 23.7237 14.9118L24.9408 16.5441C25.1162 16.8088 25.2533 17.1029 25.352 17.4265C25.4507 17.75 25.5 18.0735 25.5 18.3971C25.5 18.7206 25.4561 19.0515 25.3684 19.3897C25.2807 19.7279 25.1382 20.0294 24.9408 20.2941L18.4605 28.9853C18.2193 29.3088 17.9397 29.5588 17.6217 29.7353C17.3037 29.9118 16.9693 30 16.6184 30H14.9737C14.6009 30 14.2884 29.8309 14.0362 29.4926C13.784 29.1544 13.6579 28.7353 13.6579 28.2353ZM0.5 26.4706V23.2941C0.5 22.2941 0.691886 21.375 1.07566 20.5368C1.45943 19.6985 1.9693 19.0588 2.60526 18.6176C3.96491 17.7059 5.34649 17.0221 6.75 16.5662C8.15351 16.1103 9.57895 15.8824 11.0263 15.8824C11.8377 15.8824 12.6382 15.9485 13.4276 16.0809C14.2171 16.2132 15.0066 16.4265 15.7961 16.7206L12.1776 21.5735C11.8048 22.0735 11.5197 22.6471 11.3224 23.2941C11.125 23.9412 11.0263 24.6176 11.0263 25.3235V28.2353H1.81579C1.44298 28.2353 1.13048 28.0662 0.878289 27.7279C0.626097 27.3897 0.5 26.9706 0.5 26.4706ZM22.3092 20.1176L23.5263 18.3971L22.3092 16.7647L21.0592 18.4412L22.3092 20.1176ZM11.0263 14.1176C9.57895 14.1176 8.33991 13.4265 7.30921 12.0441C6.27851 10.6618 5.76316 9 5.76316 7.05882C5.76316 5.11765 6.27851 3.45588 7.30921 2.07353C8.33991 0.691176 9.57895 0 11.0263 0C12.4737 0 13.7127 0.691176 14.7434 2.07353C15.7741 3.45588 16.2895 5.11765 16.2895 7.05882C16.2895 9 15.7741 10.6618 14.7434 12.0441C13.7127 13.4265 12.4737 14.1176 11.0263 14.1176Z" fill="white"/>
</svg>
